<svg width="49" height="49" viewBox="0 0 49 49" fill="none" xmlns="http://www.w3.org/2000/svg">
<circle cx="24.2874" cy="24.2874" r="23.635" fill="#94FF00" stroke="#C29725" stroke-width="0.695146" stroke-linecap="round" stroke-dasharray="0.7 0.7"/>
<path d="M16.6399 15.0779C18.4862 15.0779 20.11 15.4449 21.5114 16.179C22.9351 16.8908 24.0473 17.9141 24.8481 19.2488C25.6489 20.5612 26.0494 22.1072 26.0494 23.8868C26.0494 25.6664 25.6378 27.268 24.8148 28.6916C24.014 30.1153 22.8795 31.2386 21.4113 32.0617C19.9432 32.8847 18.2304 33.2963 16.2728 33.2963C14.4932 33.2963 12.8916 32.9292 11.468 32.1952C10.0443 31.4611 8.92096 30.4378 8.09791 29.1254C7.27485 27.7907 6.86333 26.2225 6.86333 24.4206C6.86333 22.6633 7.26373 21.0839 8.06454 19.6825C8.88759 18.2811 10.0332 17.1689 11.5013 16.3458C12.9695 15.5005 14.6823 15.0779 16.6399 15.0779ZM16.3729 15.6785C15.2384 15.6785 14.3042 16.4459 13.5701 17.9808C12.8583 19.4935 12.5023 21.6067 12.5023 24.3205C12.5023 26.3226 12.6914 27.9464 13.0696 29.1921C13.4477 30.4156 13.9483 31.3054 14.5711 31.8615C15.194 32.4176 15.8613 32.6957 16.5731 32.6957C17.7076 32.6957 18.6308 31.9282 19.3426 30.3933C20.0544 28.8362 20.4103 26.7007 20.4103 23.9869C20.4103 21.9849 20.2212 20.3832 19.8431 19.182C19.4649 17.9586 18.9755 17.0688 18.3749 16.5127C17.7743 15.9566 17.107 15.6785 16.3729 15.6785ZM40.9029 14.4106C40.9029 15.9454 40.914 17.1466 40.9362 18.0142C40.9585 18.8595 40.9919 19.6047 41.0363 20.2498C40.8584 20.2053 40.5136 20.1719 40.002 20.1497C39.5126 20.1274 38.9453 20.1163 38.3002 20.1163C37.6552 20.0941 37.0212 20.0829 36.3983 20.0829H30.7259L30.1253 25.5551C30.7037 25.1547 31.4378 24.8211 32.3276 24.5541C33.2396 24.2649 34.3185 24.1203 35.5642 24.1203C37.099 24.1203 38.3559 24.3539 39.3346 24.8211C40.3356 25.2882 41.0697 25.9333 41.5368 26.7563C42.0262 27.5571 42.2709 28.4469 42.2709 29.4257C42.2709 30.7159 41.8594 31.8726 41.0363 32.8959C40.2355 33.9191 39.1567 34.7978 37.7997 35.5319C36.4428 36.2659 34.9413 36.822 33.2952 37.2002C31.6491 37.5784 29.9919 37.7674 28.3235 37.7674V37.1668C29.369 37.1668 30.3923 36.9889 31.3933 36.633C32.3943 36.2993 33.2952 35.8099 34.096 35.1648C34.8968 34.542 35.5308 33.7634 35.9979 32.8291C36.4651 31.8949 36.6986 30.816 36.6986 29.5925C36.6986 28.2134 36.3872 27.1567 35.7644 26.4227C35.1415 25.6664 34.2184 25.2882 32.9949 25.2882C32.3276 25.2882 31.7492 25.3883 31.2598 25.5885C30.7927 25.7887 30.3367 26.0556 29.8918 26.3893L29.3913 26.0556L30.5925 15.4449C30.8372 15.4894 31.1152 15.5228 31.4266 15.545C31.7603 15.5673 32.0829 15.5784 32.3943 15.5784H38.4671C39.0454 15.5784 39.457 15.4894 39.7017 15.3115C39.9464 15.1335 40.1021 14.8332 40.1688 14.4106H40.9029Z" fill="#C18D2A"/>
</svg>
