<svg xmlns="http://www.w3.org/2000/svg" width="49" height="49" viewBox="0 0 49 49" fill="none"><circle cx="24.2874" cy="24.2874" r="23.635" fill="#FF35EA" stroke="#FBC63C" stroke-width="0.695146" stroke-linecap="round" stroke-dasharray="0.7 0.7"></circle><path d="M16.6399 15.0779C18.4862 15.0779 20.11 15.4449 21.5114 16.179C22.9351 16.8908 24.0473 17.9141 24.8481 19.2488C25.6489 20.5612 26.0494 22.1072 26.0494 23.8868C26.0494 25.6664 25.6378 27.268 24.8148 28.6916C24.014 30.1153 22.8795 31.2386 21.4113 32.0617C19.9432 32.8847 18.2304 33.2963 16.2728 33.2963C14.4932 33.2963 12.8916 32.9292 11.468 32.1952C10.0443 31.4611 8.92096 30.4378 8.09791 29.1254C7.27485 27.7907 6.86333 26.2225 6.86333 24.4206C6.86333 22.6633 7.26373 21.0839 8.06454 19.6825C8.88759 18.2811 10.0332 17.1689 11.5013 16.3458C12.9695 15.5005 14.6823 15.0779 16.6399 15.0779ZM16.3729 15.6785C15.2384 15.6785 14.3042 16.4459 13.5701 17.9808C12.8583 19.4935 12.5023 21.6067 12.5023 24.3205C12.5023 26.3226 12.6914 27.9464 13.0696 29.1921C13.4477 30.4156 13.9483 31.3054 14.5711 31.8615C15.194 32.4176 15.8613 32.6957 16.5731 32.6957C17.7076 32.6957 18.6308 31.9282 19.3426 30.3933C20.0544 28.8362 20.4103 26.7007 20.4103 23.9869C20.4103 21.9849 20.2212 20.3832 19.8431 19.182C19.4649 17.9586 18.9755 17.0688 18.3749 16.5127C17.7743 15.9566 17.107 15.6785 16.3729 15.6785ZM37.2325 15.178V29.6593C37.2325 30.6158 37.3882 31.272 37.6996 31.6279C38.0333 31.9616 38.5894 32.1284 39.368 32.1284V32.8291C38.9231 32.8069 38.2669 32.7846 37.3993 32.7624C36.554 32.7179 35.6754 32.6957 34.7633 32.6957C33.5844 32.6957 32.4499 32.7179 31.3599 32.7624C30.2699 32.7846 29.4246 32.8069 28.824 32.8291V32.1284C29.7805 32.1284 30.5146 31.9505 31.0262 31.5946C31.5601 31.2164 31.8271 30.4823 31.8271 29.3923V21.2174C31.8271 20.1497 31.7381 19.36 31.5601 18.8484C31.3822 18.3367 31.0707 18.0031 30.6258 17.8474C30.1809 17.6916 29.5581 17.6138 28.7573 17.6138V16.8797C30.7816 16.8352 32.4499 16.6906 33.7623 16.4459C35.0748 16.2012 36.2315 15.7786 37.2325 15.178Z" fill="#EFD5A4"></path></svg>