<svg width="49" height="49" viewBox="0 0 49 49" fill="none" xmlns="http://www.w3.org/2000/svg">
<circle cx="24.2874" cy="24.2874" r="23.635" fill="#7253A4" stroke="#FBC63C" stroke-width="0.695146" stroke-linecap="round" stroke-dasharray="0.7 0.7"/>
<path d="M16.6399 15.0779C18.4862 15.0779 20.11 15.4449 21.5114 16.179C22.9351 16.8908 24.0473 17.9141 24.8481 19.2488C25.6489 20.5612 26.0494 22.1072 26.0494 23.8868C26.0494 25.6664 25.6378 27.268 24.8148 28.6916C24.014 30.1153 22.8795 31.2386 21.4113 32.0617C19.9432 32.8847 18.2304 33.2963 16.2728 33.2963C14.4932 33.2963 12.8916 32.9292 11.468 32.1952C10.0443 31.4611 8.92096 30.4378 8.09791 29.1254C7.27485 27.7907 6.86333 26.2225 6.86333 24.4206C6.86333 22.6633 7.26373 21.0839 8.06454 19.6825C8.88759 18.2811 10.0332 17.1689 11.5013 16.3458C12.9695 15.5005 14.6823 15.0779 16.6399 15.0779ZM16.3729 15.6785C15.2384 15.6785 14.3042 16.4459 13.5701 17.9808C12.8583 19.4935 12.5023 21.6067 12.5023 24.3205C12.5023 26.3226 12.6914 27.9464 13.0696 29.1921C13.4477 30.4156 13.9483 31.3054 14.5711 31.8615C15.194 32.4176 15.8613 32.6957 16.5731 32.6957C17.7076 32.6957 18.6308 31.9282 19.3426 30.3933C20.0544 28.8362 20.4103 26.7007 20.4103 23.9869C20.4103 21.9849 20.2212 20.3832 19.8431 19.182C19.4649 17.9586 18.9755 17.0688 18.3749 16.5127C17.7743 15.9566 17.107 15.6785 16.3729 15.6785ZM35.9312 15.0779C37.0657 15.0779 38.0889 15.2336 39.001 15.545C39.913 15.8565 40.6248 16.3013 41.1364 16.8797C41.6703 17.4358 41.9373 18.1143 41.9373 18.9151C41.9373 19.7604 41.6481 20.5501 41.0697 21.2842C40.4913 22.0182 39.6461 22.6633 38.5338 23.2194C37.4438 23.7756 36.1203 24.176 34.5631 24.4206C36.2315 24.3539 37.7108 24.5096 39.001 24.8878C40.2911 25.2437 41.3033 25.8221 42.0374 26.6229C42.7714 27.4014 43.1385 28.3691 43.1385 29.5258C43.1385 30.5491 42.8493 31.4945 42.2709 32.362C41.6926 33.2295 40.9029 33.997 39.9019 34.6643C38.9231 35.3539 37.7997 35.9323 36.5318 36.3994C35.2639 36.8888 33.9292 37.2558 32.5278 37.5005C31.1486 37.7452 29.7694 37.8675 28.3903 37.8675V37.2002C29.3913 37.1557 30.4256 36.9666 31.4934 36.633C32.5611 36.2993 33.551 35.8099 34.463 35.1648C35.3973 34.5197 36.1425 33.73 36.6986 32.7958C37.277 31.8615 37.5662 30.7826 37.5662 29.5592C37.5662 28.2467 37.2548 27.179 36.6319 26.3559C36.009 25.5106 35.1526 25.0435 34.0626 24.9545C33.729 25.088 33.4175 25.2103 33.1284 25.3216C32.8614 25.4328 32.5834 25.4884 32.2942 25.4884C32.094 25.4884 31.9383 25.455 31.8271 25.3883C31.7158 25.3216 31.6602 25.1881 31.6602 24.9879C31.6602 24.721 31.7714 24.5319 31.9939 24.4206C32.2163 24.3094 32.4833 24.2538 32.7947 24.2538C32.9727 24.2538 33.1506 24.2649 33.3286 24.2872C33.5288 24.3094 33.7401 24.3317 33.9625 24.3539C34.9191 23.6866 35.5864 22.9859 35.9646 22.2518C36.3427 21.4955 36.5318 20.7392 36.5318 19.9828C36.5318 19.0041 36.2649 18.2811 35.731 17.814C35.1971 17.3246 34.463 17.0799 33.5288 17.0799C32.6835 17.0799 31.8715 17.2912 31.093 17.7139C30.3367 18.1143 29.7027 18.726 29.1911 19.5491L28.6238 19.2488C29.0465 18.5147 29.5581 17.8362 30.1587 17.2134C30.7816 16.5683 31.5601 16.0567 32.4944 15.6785C33.4287 15.2781 34.5743 15.0779 35.9312 15.0779Z" fill="#EFD5A4"/>
</svg>
