<svg width="49" height="49" viewBox="0 0 49 49" fill="none" xmlns="http://www.w3.org/2000/svg">
<circle cx="24.2874" cy="24.2874" r="23.635" fill="#FE753F" stroke="#FBC63C" stroke-width="0.695146" stroke-linecap="round" stroke-dasharray="0.7 0.7"/>
<path d="M16.6399 15.0779C18.4862 15.0779 20.11 15.4449 21.5114 16.179C22.9351 16.8908 24.0473 17.9141 24.8481 19.2488C25.6489 20.5612 26.0494 22.1072 26.0494 23.8868C26.0494 25.6664 25.6378 27.268 24.8148 28.6916C24.014 30.1153 22.8795 31.2386 21.4113 32.0617C19.9432 32.8847 18.2304 33.2963 16.2728 33.2963C14.4932 33.2963 12.8916 32.9292 11.468 32.1952C10.0443 31.4611 8.92096 30.4378 8.09791 29.1254C7.27485 27.7907 6.86333 26.2225 6.86333 24.4206C6.86333 22.6633 7.26373 21.0839 8.06454 19.6825C8.88759 18.2811 10.0332 17.1689 11.5013 16.3458C12.9695 15.5005 14.6823 15.0779 16.6399 15.0779ZM16.3729 15.6785C15.2384 15.6785 14.3042 16.4459 13.5701 17.9808C12.8583 19.4935 12.5023 21.6067 12.5023 24.3205C12.5023 26.3226 12.6914 27.9464 13.0696 29.1921C13.4477 30.4156 13.9483 31.3054 14.5711 31.8615C15.194 32.4176 15.8613 32.6957 16.5731 32.6957C17.7076 32.6957 18.6308 31.9282 19.3426 30.3933C20.0544 28.8362 20.4103 26.7007 20.4103 23.9869C20.4103 21.9849 20.2212 20.3832 19.8431 19.182C19.4649 17.9586 18.9755 17.0688 18.3749 16.5127C17.7743 15.9566 17.107 15.6785 16.3729 15.6785ZM40.2775 15.0779L40.411 15.9454L29.6668 29.3256L30.2674 27.9909H41.0449C41.957 27.9909 42.5353 27.8908 42.78 27.6906C43.0247 27.4682 43.1916 27.09 43.2805 26.5561H44.0146C44.0146 27.9798 44.0257 29.092 44.048 29.8928C44.0702 30.6714 44.1036 31.3721 44.1481 31.995C43.9924 31.9505 43.6809 31.9282 43.2138 31.9282C42.7689 31.906 42.2462 31.8837 41.6456 31.8615C41.0449 31.8392 40.4332 31.8281 39.8104 31.8281C39.1875 31.8281 38.6203 31.8281 38.1087 31.8281H27.2977V31.1274L40.2775 15.0779ZM40.8114 15.0779V37.5339H36.5404V20.183L40.2775 15.0779H40.8114Z" fill="#EFD5A4"/>
</svg>
