<svg width="49" height="49" viewBox="0 0 49 49" fill="none" xmlns="http://www.w3.org/2000/svg">
<circle cx="24.2874" cy="24.2874" r="23.635" fill="#1090D2" stroke="#FBC63C" stroke-width="0.695146" stroke-linecap="round" stroke-dasharray="0.7 0.7"/>
<path d="M16.6399 15.0779C18.4862 15.0779 20.11 15.4449 21.5114 16.179C22.9351 16.8908 24.0473 17.9141 24.8481 19.2488C25.6489 20.5612 26.0494 22.1072 26.0494 23.8868C26.0494 25.6664 25.6378 27.268 24.8148 28.6916C24.014 30.1153 22.8795 31.2386 21.4113 32.0617C19.9432 32.8847 18.2304 33.2963 16.2728 33.2963C14.4932 33.2963 12.8916 32.9292 11.468 32.1952C10.0443 31.4611 8.92096 30.4378 8.09791 29.1254C7.27485 27.7907 6.86333 26.2225 6.86333 24.4206C6.86333 22.6633 7.26373 21.0839 8.06454 19.6825C8.88759 18.2811 10.0332 17.1689 11.5013 16.3458C12.9695 15.5005 14.6823 15.0779 16.6399 15.0779ZM16.3729 15.6785C15.2384 15.6785 14.3042 16.4459 13.5701 17.9808C12.8583 19.4935 12.5023 21.6067 12.5023 24.3205C12.5023 26.3226 12.6914 27.9464 13.0696 29.1921C13.4477 30.4156 13.9483 31.3054 14.5711 31.8615C15.194 32.4176 15.8613 32.6957 16.5731 32.6957C17.7076 32.6957 18.6308 31.9282 19.3426 30.3933C20.0544 28.8362 20.4103 26.7007 20.4103 23.9869C20.4103 21.9849 20.2212 20.3832 19.8431 19.182C19.4649 17.9586 18.9755 17.0688 18.3749 16.5127C17.7743 15.9566 17.107 15.6785 16.3729 15.6785ZM36.9989 15.0779C38.7785 15.0779 40.1799 15.4449 41.2032 16.179C42.2487 16.9131 42.7714 17.9586 42.7714 19.3155C42.7714 20.183 42.549 20.9616 42.1041 21.6512C41.6592 22.3408 41.0697 22.9859 40.3356 23.5865C39.6238 24.1871 38.8564 24.7543 38.0333 25.2882C37.2103 25.7998 36.4095 26.3114 35.6309 26.8231C34.8523 27.3347 34.185 27.8574 33.6289 28.3913H41.003C41.915 28.3913 42.4934 28.2912 42.7381 28.091C42.9828 27.8686 43.1496 27.4904 43.2386 26.9565H43.9726C43.9726 28.5359 43.9838 29.7705 44.006 30.6603C44.0283 31.5501 44.0616 32.3286 44.1061 32.996C43.9059 32.9515 43.5389 32.9181 43.005 32.8959C42.4711 32.8736 41.8594 32.8514 41.1698 32.8291C40.4802 32.8291 39.8018 32.8291 39.1344 32.8291H28.7907V32.1618C29.4135 31.5389 30.1698 30.8382 31.0596 30.0597C31.9716 29.2589 32.8614 28.3691 33.729 27.3903C34.6188 26.4115 35.364 25.3549 35.9646 24.2204C36.5652 23.086 36.8655 21.8625 36.8655 20.5501C36.8655 19.3934 36.6097 18.5481 36.098 18.0142C35.5864 17.4803 34.8301 17.2134 33.8291 17.2134C32.8726 17.2134 32.0273 17.4247 31.2932 17.8474C30.5814 18.2478 29.9363 18.8372 29.3579 19.6158L28.7907 19.2488C29.28 18.4702 29.8806 17.7695 30.5925 17.1466C31.3043 16.5015 32.183 16.001 33.2285 15.6451C34.274 15.267 35.5308 15.0779 36.9989 15.0779Z" fill="#EFD5A4"/>
</svg>
