<svg width="400" height="400" viewBox="0 0 400 400" fill="none" xmlns="http://www.w3.org/2000/svg">
<path d="M32.35 131.58C36.12 131.38 39.9 131.24 43.67 130.97C66.55 129.36 89.46 128.03 112.31 125.99C134.81 123.98 157.29 121.55 179.71 118.74C208.04 115.19 236.29 111.06 264.58 107.22C280.21 105.1 295.82 101.83 311.51 101.31C328.62 100.75 345.31 104.89 359.39 115.43C363.06 118.18 365.2 123.24 367.43 127.55C369.35 131.26 367.99 134.2 363.41 134.23C353.3 134.28 343.18 134.25 333.07 133.93C306.98 133.09 280.89 131.44 254.79 131.28C225 131.09 195.43 134.71 165.97 138.97C140.34 142.68 114.7 146.36 89.08 150.11C84.81 150.73 80.53 151.41 76.36 152.47C61.63 156.21 49.37 150.24 37.83 142.4C34.86 140.38 33.27 136.34 31.04 133.23C31.47 132.68 31.91 132.13 32.35 131.58V131.58Z" fill="#EADBBF"/>
<path d="M103.34 252.58C119.36 250.68 135.07 249.27 150.63 246.86C179.61 242.36 208.52 237.33 237.43 232.39C243.96 231.27 250.35 228.91 256.9 228.39C270.41 227.31 282.84 230.84 293.41 239.69C294.88 240.92 296.04 242.74 296.87 244.51C300.13 251.45 298.5 254.82 290.94 255.16C276.5 255.82 262.02 255.95 247.56 256.16C210.93 256.69 174.65 259.9 138.94 268.7C130.36 270.81 121.35 269.88 112.9 266.75C105.99 264.2 103.03 259.55 103.34 252.58V252.58Z" fill="#EADBBF"/>
</svg>
